<svg width="50" height="50" viewBox="0 0 50 50" fill="none" xmlns="http://www.w3.org/2000/svg">
<rect y="0.488647" width="50" height="48.9773" rx="24.4886" fill="#1C1C1E"/>
<path d="M15.5197 38.4886H34.4803C37.4567 38.4886 39 36.9889 39 34.1367V17.8405C39 14.975 37.4567 13.4886 34.4803 13.4886H15.5197C12.5433 13.4886 11 14.975 11 17.8405V34.1367C11 37.0023 12.5433 38.4886 15.5197 38.4886ZM15.4783 35.8641C14.3346 35.8641 13.7008 35.2749 13.7008 34.11V21.7372C13.7008 20.5588 14.3346 19.983 15.4783 19.983H34.4941C35.6516 19.983 36.2992 20.5588 36.2992 21.7372V34.11C36.2992 35.2749 35.6516 35.8641 34.4941 35.8641H15.4783ZM22.3406 24.6295H23.1535C23.6496 24.6295 23.815 24.4822 23.815 24.0002V23.2235C23.815 22.7415 23.6496 22.5942 23.1535 22.5942H22.3406C21.8583 22.5942 21.6929 22.7415 21.6929 23.2235V24.0002C21.6929 24.4822 21.8583 24.6295 22.3406 24.6295ZM26.8602 24.6295H27.6594C28.1555 24.6295 28.3209 24.4822 28.3209 24.0002V23.2235C28.3209 22.7415 28.1555 22.5942 27.6594 22.5942H26.8602C26.3642 22.5942 26.1988 22.7415 26.1988 23.2235V24.0002C26.1988 24.4822 26.3642 24.6295 26.8602 24.6295ZM31.3661 24.6295H32.1654C32.6614 24.6295 32.8268 24.4822 32.8268 24.0002V23.2235C32.8268 22.7415 32.6614 22.5942 32.1654 22.5942H31.3661C30.8701 22.5942 30.7047 22.7415 30.7047 23.2235V24.0002C30.7047 24.4822 30.8701 24.6295 31.3661 24.6295ZM17.8346 28.9412H18.6476C19.1437 28.9412 19.3091 28.794 19.3091 28.3119V27.5352C19.3091 27.0532 19.1437 26.9059 18.6476 26.9059H17.8346C17.3524 26.9059 17.187 27.0532 17.187 27.5352V28.3119C17.187 28.794 17.3524 28.9412 17.8346 28.9412ZM22.3406 28.9412H23.1535C23.6496 28.9412 23.815 28.794 23.815 28.3119V27.5352C23.815 27.0532 23.6496 26.9059 23.1535 26.9059H22.3406C21.8583 26.9059 21.6929 27.0532 21.6929 27.5352V28.3119C21.6929 28.794 21.8583 28.9412 22.3406 28.9412ZM26.8602 28.9412H27.6594C28.1555 28.9412 28.3209 28.794 28.3209 28.3119V27.5352C28.3209 27.0532 28.1555 26.9059 27.6594 26.9059H26.8602C26.3642 26.9059 26.1988 27.0532 26.1988 27.5352V28.3119C26.1988 28.794 26.3642 28.9412 26.8602 28.9412ZM31.3661 28.9412H32.1654C32.6614 28.9412 32.8268 28.794 32.8268 28.3119V27.5352C32.8268 27.0532 32.6614 26.9059 32.1654 26.9059H31.3661C30.8701 26.9059 30.7047 27.0532 30.7047 27.5352V28.3119C30.7047 28.794 30.8701 28.9412 31.3661 28.9412ZM17.8346 33.253H18.6476C19.1437 33.253 19.3091 33.1057 19.3091 32.6236V31.847C19.3091 31.3649 19.1437 31.2176 18.6476 31.2176H17.8346C17.3524 31.2176 17.187 31.3649 17.187 31.847V32.6236C17.187 33.1057 17.3524 33.253 17.8346 33.253ZM22.3406 33.253H23.1535C23.6496 33.253 23.815 33.1057 23.815 32.6236V31.847C23.815 31.3649 23.6496 31.2176 23.1535 31.2176H22.3406C21.8583 31.2176 21.6929 31.3649 21.6929 31.847V32.6236C21.6929 33.1057 21.8583 33.253 22.3406 33.253ZM26.8602 33.253H27.6594C28.1555 33.253 28.3209 33.1057 28.3209 32.6236V31.847C28.3209 31.3649 28.1555 31.2176 27.6594 31.2176H26.8602C26.3642 31.2176 26.1988 31.3649 26.1988 31.847V32.6236C26.1988 33.1057 26.3642 33.253 26.8602 33.253Z" fill="#EB5545"/>
</svg>
