<svg width="50" height="50" viewBox="0 0 50 50" fill="none" xmlns="http://www.w3.org/2000/svg">
<g filter="url(#filter0_d_71_52)">
<path d="M24.027 34.6704C23.4168 34.6704 22.9224 35.1648 22.9224 35.7751V42.1698L20.8287 40.3392C20.3694 39.9382 19.6722 39.9848 19.2704 40.4433C18.8686 40.9025 18.9152 41.6001 19.3745 42.0018L23.2994 45.4348C23.5089 45.6176 23.7679 45.7077 24.026 45.7077H24.0268C24.2849 45.7077 24.5441 45.6176 24.7534 45.4343L28.6764 42.0013C29.1356 41.5995 29.182 40.9019 28.7802 40.443C28.3792 39.9837 27.6814 39.938 27.2219 40.3392L25.1304 42.169L25.1309 35.7745C25.1318 35.1648 24.6371 34.6704 24.0272 34.6704L24.027 34.6704Z" fill="white"/>
<path d="M33.4689 25.9374V13.281C33.4689 9.4038 30.3146 6.24951 26.4376 6.24951H21.6156C17.7379 6.24951 14.583 9.4038 14.583 13.281V25.9374C14.583 29.8146 17.7379 32.9695 21.6156 32.9695H26.4376C30.3146 32.9695 33.4689 29.8149 33.4689 25.9374ZM31.2596 25.9374C31.2596 28.5973 29.0967 30.7608 26.4371 30.7608H21.6156C18.9558 30.7608 16.792 28.5973 16.792 25.9374V13.281C16.792 10.6217 18.9561 8.45815 21.6156 8.45815H26.4376C29.0969 8.45815 31.2602 10.6217 31.2602 13.281V25.9374H31.2596Z" fill="white"/>
<path d="M24.0275 12.5127C23.4173 12.5127 22.9229 13.0071 22.9229 13.6173V16.8991C22.9229 17.5093 23.4173 18.0037 24.0275 18.0037C24.6377 18.0037 25.1321 17.5093 25.1321 16.8991V13.6173C25.1321 13.0074 24.6374 12.5127 24.0275 12.5127Z" fill="white"/>
</g>
<defs>
<filter id="filter0_d_71_52" x="-4" y="0" width="58" height="58" filterUnits="userSpaceOnUse" color-interpolation-filters="sRGB">
<feFlood flood-opacity="0" result="BackgroundImageFix"/>
<feColorMatrix in="SourceAlpha" type="matrix" values="0 0 0 0 0 0 0 0 0 0 0 0 0 0 0 0 0 0 127 0" result="hardAlpha"/>
<feOffset dy="4"/>
<feGaussianBlur stdDeviation="2"/>
<feComposite in2="hardAlpha" operator="out"/>
<feColorMatrix type="matrix" values="0 0 0 0 0 0 0 0 0 0 0 0 0 0 0 0 0 0 0.25 0"/>
<feBlend mode="normal" in2="BackgroundImageFix" result="effect1_dropShadow_71_52"/>
<feBlend mode="normal" in="SourceGraphic" in2="effect1_dropShadow_71_52" result="shape"/>
</filter>
</defs>
</svg>
