<svg width="80" height="80" viewBox="0 0 80 80" fill="none" xmlns="http://www.w3.org/2000/svg">
<circle cx="15.4762" cy="69.4359" r="1.5" transform="rotate(-140.35 15.4762 69.4359)" fill="#C6367B"/>
<circle cx="74.245" cy="57.2005" r="1.5" transform="rotate(115.317 74.245 57.2005)" fill="#0EC9E3"/>
<circle cx="12.7937" cy="66.9184" r="1.5" transform="rotate(-134.801 12.7937 66.9184)" fill="#C6367B"/>
<circle cx="2.16033" cy="38.483" r="1.5" transform="rotate(-87.7162 2.16033 38.483)" fill="#C6367B"/>
<circle cx="72.4714" cy="60.4231" r="1.5" transform="rotate(120.866 72.4714 60.4231)" fill="#0EC9E3"/>
<circle cx="10.5507" cy="64.3842" r="1.5" transform="rotate(-129.698 10.5507 64.3842)" fill="#C6367B"/>
<circle cx="2.48918" cy="35.1156" r="1.5" transform="rotate(-82.6132 2.48918 35.1156)" fill="#C6367B"/>
<circle cx="70.5712" cy="63.2227" r="1.5" transform="rotate(125.969 70.5712 63.2227)" fill="#0EC9E3"/>
<circle cx="8.5613" cy="61.6866" r="1.5" transform="rotate(-124.642 8.5613 61.6866)" fill="#C6367B"/>
<circle cx="3.10944" cy="31.8212" r="1.5" transform="rotate(-77.5569 3.10944 31.8212)" fill="#C6367B"/>
<circle cx="68.4494" cy="65.8183" r="1.5" transform="rotate(131.026 68.4494 65.8183)" fill="#C6367B"/>
<circle cx="6.68347" cy="58.5797" r="1.5" transform="rotate(-119.166 6.68347 58.5797)" fill="#C6367B"/>
<circle cx="4.10669" cy="28.33" r="1.5" transform="rotate(-72.0817 4.10669 28.33)" fill="#C6367B"/>
<circle cx="65.904" cy="68.4072" r="1.5" transform="rotate(136.501 65.904 68.4072)" fill="#C6367B"/>
<circle cx="62.3833" cy="9.72011" r="1.5" transform="rotate(35.1587 62.3833 9.72011)" fill="#0EC9E3"/>
<circle cx="5.24107" cy="55.6131" r="1.5" transform="rotate(-114.192 5.24107 55.6131)" fill="#C6367B"/>
<circle cx="5.2966" cy="25.2543" r="1.5" transform="rotate(-67.107 5.2966 25.2543)" fill="#C6367B"/>
<circle cx="62.6944" cy="71.0702" r="1.5" transform="rotate(142.806 62.6944 71.0702)" fill="#C6367B"/>
<circle cx="66.066" cy="12.739" r="1.5" transform="rotate(42.3234 66.066 12.739)" fill="#0EC9E3"/>
<circle cx="4.03636" cy="52.4552" r="1.5" transform="rotate(-109.094 4.03636 52.4552)" fill="#C6367B"/>
<circle cx="6.78945" cy="22.2216" r="1.5" transform="rotate(-62.0093 6.78945 22.2216)" fill="#C6367B"/>
<circle cx="59.5277" cy="73.1743" r="1.5" transform="rotate(148.548 59.5277 73.1743)" fill="#C6367B"/>
<circle cx="68.8305" cy="15.6013" r="1.5" transform="rotate(48.3185 68.8305 15.6013)" fill="#0EC9E3"/>
<circle cx="3.114" cy="49.1901" r="1.5" transform="rotate(-103.976 3.114 49.1901)" fill="#C6367B"/>
<circle cx="8.55352" cy="19.3225" r="1.5" transform="rotate(-56.8917 8.55352 19.3225)" fill="#C6367B"/>
<circle cx="55.9966" cy="75.0308" r="1.5" transform="rotate(154.577 55.9966 75.0308)" fill="#C6367B"/>
<circle cx="71.354" cy="18.8392" r="1.5" transform="rotate(54.5034 71.354 18.8392)" fill="#0EC9E3"/>
<circle cx="2.47185" cy="45.7509" r="1.5" transform="rotate(-98.7001 2.47185 45.7509)" fill="#C6367B"/>
<circle cx="10.6337" cy="16.5104" r="1.5" transform="rotate(-51.6154 10.6337 16.5104)" fill="#C6367B"/>
<circle cx="51.8059" cy="76.6669" r="1.5" transform="rotate(161.383 51.8059 76.6669)" fill="#C6367B"/>
<circle cx="73.5326" cy="22.3689" r="1.5" transform="rotate(60.7557 73.5326 22.3689)" fill="#0EC9E3"/>
<circle cx="2.13648" cy="42.0085" r="1.5" transform="rotate(-93.0333 2.13648 42.0085)" fill="#C6367B"/>
<circle cx="13.1466" cy="13.7167" r="1.5" transform="rotate(-45.9486 13.1466 13.7167)" fill="#C6367B"/>
<circle cx="47.7525" cy="77.7321" r="1.5" transform="rotate(167.714 47.7525 77.7321)" fill="#C6367B"/>
<circle cx="75.5406" cy="26.669" r="1.5" transform="rotate(67.909 75.5406 26.669)" fill="#0EC9E3"/>
<circle cx="15.9501" cy="11.1636" r="1.5" transform="rotate(-40.2298 15.9501 11.1636)" fill="#C6367B"/>
<circle cx="43.5763" cy="78.3445" r="1.5" transform="rotate(174.086 43.5763 78.3445)" fill="#C6367B"/>
<circle cx="76.9239" cy="30.9089" r="1.5" transform="rotate(74.6337 76.9239 30.9089)" fill="#0EC9E3"/>
<circle cx="19.0714" cy="8.8495" r="1.5" transform="rotate(-34.3683 19.0714 8.8495)" fill="#C6367B"/>
<circle cx="39.2914" cy="78.4891" r="1.5" transform="rotate(-179.437 39.2914 78.4891)" fill="#C6367B"/>
<circle cx="77.8273" cy="35.4171" r="1.5" transform="rotate(81.565 77.8273 35.4171)" fill="#0EC9E3"/>
<circle cx="22.0974" cy="7.03438" r="1.5" transform="rotate(-29.0459 22.0974 7.03438)" fill="#C6367B"/>
<circle cx="35.2243" cy="78.1761" r="1.5" transform="rotate(-173.273 35.2243 78.1761)" fill="#C6367B"/>
<circle cx="78.1766" cy="40.101" r="1.5" transform="rotate(88.6492 78.1766 40.101)" fill="#0EC9E3"/>
<circle cx="25.5586" cy="5.39107" r="1.5" transform="rotate(-23.2673 25.5586 5.39107)" fill="#C6367B"/>
<circle cx="30.9704" cy="77.3668" r="1.5" transform="rotate(-166.732 30.9704 77.3668)" fill="#C6367B"/>
<circle cx="77.9649" cy="44.5814" r="1.5" transform="rotate(95.415 77.9649 44.5814)" fill="#0EC9E3"/>
<circle cx="29.3256" cy="4.05698" r="1.5" transform="rotate(-17.2409 29.3256 4.05698)" fill="#C6367B"/>
<circle cx="26.6605" cy="76.0116" r="1.5" transform="rotate(-159.906 26.6605 76.0116)" fill="#C6367B"/>
<circle cx="33.2995" cy="3.11022" r="1.5" transform="rotate(-11.0781 33.2995 3.11022)" fill="#C6367B"/>
<circle cx="22.7179" cy="74.2459" r="1.5" transform="rotate(-153.384 22.7179 74.2459)" fill="#C6367B"/>
<circle cx="36.7247" cy="2.64639" r="1.5" transform="rotate(-5.86399 36.7247 2.64639)" fill="#C6367B"/>
<circle cx="18.9847" cy="72.027" r="1.5" transform="rotate(-146.817 18.9847 72.027)" fill="#C6367B"/>
<circle cx="41.3798" cy="2.52147" r="1.5" transform="rotate(1.22975 41.3798 2.52147)" fill="#0EC9E3"/>
<circle cx="46.2162" cy="3.00995" r="1.5" transform="rotate(8.5956 46.2162 3.00995)" fill="#0EC9E3"/>
<circle cx="50.3332" cy="3.91989" r="1.5" transform="rotate(14.9414 50.3332 3.91989)" fill="#0EC9E3"/>
<circle cx="54.6658" cy="5.41524" r="1.5" transform="rotate(21.8341 54.6658 5.41524)" fill="#0EC9E3"/>
<circle cx="58.7454" cy="7.39735" r="1.5" transform="rotate(28.6618 58.7454 7.39735)" fill="#0EC9E3"/>
<circle cx="77.2857" cy="48.7255" r="1.5" transform="rotate(101.75 77.2857 48.7255)" fill="#0EC9E3"/>
<circle cx="76.0342" cy="53.1461" r="1.5" transform="rotate(108.685 76.0342 53.1461)" fill="#0EC9E3"/>
</svg>
