<svg width="81" height="80" viewBox="0 0 81 80" fill="none" xmlns="http://www.w3.org/2000/svg">
<circle cx="41.2617" cy="1.52806" r="1.5" transform="rotate(1.22975 41.2617 1.52806)" fill="#0EC9E3"/>
<circle cx="48.551" cy="77.6626" r="1.5" transform="rotate(168.656 48.551 77.6626)" fill="#C6367B"/>
<circle cx="78.697" cy="33.8965" r="1.5" transform="rotate(81.2877 78.697 33.8965)" fill="#0EC9E3"/>
<circle cx="3.55318" cy="49.9634" r="1.5" transform="rotate(-104.603 3.55318 49.9634)" fill="#C6367B"/>
<circle cx="69.2315" cy="65.8168" r="1.5" transform="rotate(132.566 69.2315 65.8168)" fill="#0EC9E3"/>
<circle cx="8.88057" cy="18.3922" r="1.5" transform="rotate(-55.4242 8.88057 18.3922)" fill="#C6367B"/>
<circle cx="60.3404" cy="6.90908" r="1.5" transform="rotate(31.0887 60.3404 6.90908)" fill="#0EC9E3"/>
<circle cx="23.4074" cy="74.357" r="1.5" transform="rotate(-152.858 23.4074 74.357)" fill="#C6367B"/>
<circle cx="50.7228" cy="2.84997" r="1.5" transform="rotate(15.4938 50.7228 2.84997)" fill="#0EC9E3"/>
<circle cx="32.0189" cy="77.4737" r="1.5" transform="rotate(-166.529 32.0189 77.4737)" fill="#C6367B"/>
<circle cx="68.5213" cy="13.413" r="1.5" transform="rotate(46.7021 68.5213 13.413)" fill="#0EC9E3"/>
<circle cx="14.8926" cy="68.5177" r="1.5" transform="rotate(-137.435 14.8926 68.5177)" fill="#C6367B"/>
<circle cx="74.4735" cy="21.5523" r="1.5" transform="rotate(61.7627 74.4735 21.5523)" fill="#0EC9E3"/>
<circle cx="7.99481" cy="60.2363" r="1.5" transform="rotate(-121.33 7.99481 60.2363)" fill="#C6367B"/>
<circle cx="78.6001" cy="46.6637" r="1.5" transform="rotate(100.39 78.6001 46.6637)" fill="#0EC9E3"/>
<circle cx="2.26633" cy="38.6241" r="1.5" transform="rotate(-87.5447 2.26633 38.6241)" fill="#C6367B"/>
<circle cx="74.9848" cy="57.4728" r="1.5" transform="rotate(117.429 74.9848 57.4728)" fill="#0EC9E3"/>
<circle cx="4.17473" cy="27.9544" r="1.5" transform="rotate(-71.3466 4.17473 27.9544)" fill="#C6367B"/>
<circle cx="62.7994" cy="71.495" r="1.5" transform="rotate(145.37 62.7994 71.495)" fill="#C6367B"/>
<circle cx="15.3591" cy="11.0622" r="1.5" transform="rotate(-40.8151 15.3591 11.0622)" fill="#C6367B"/>
<circle cx="55.3205" cy="75.586" r="1.5" transform="rotate(158.094 55.3205 75.586)" fill="#C6367B"/>
<circle cx="23.1373" cy="5.77567" r="1.5" transform="rotate(-26.7737 23.1373 5.77567)" fill="#C6367B"/>
<circle cx="39.7916" cy="78.4572" r="1.5" transform="rotate(-178.192 39.7916 78.4572)" fill="#C6367B"/>
<circle cx="30.8851" cy="2.80185" r="1.5" transform="rotate(-14.3628 30.8851 2.80185)" fill="#C6367B"/>
</svg>
